<svg width="1200" height="320" viewBox="0 0 1200 320" fill="none" xmlns="http://www.w3.org/2000/svg">
  <defs>
    <linearGradient id="bg" x1="0" y1="0" x2="1200" y2="320" gradientUnits="userSpaceOnUse">
      <stop stop-color="#0F172A"/>
      <stop offset="0.48" stop-color="#0F1D3A"/>
      <stop offset="1" stop-color="#0F766E"/>
    </linearGradient>
    <linearGradient id="accent" x1="140" y1="80" x2="450" y2="250" gradientUnits="userSpaceOnUse">
      <stop stop-color="#38BDF8"/>
      <stop offset="1" stop-color="#34D399"/>
    </linearGradient>
    <linearGradient id="panel" x1="780" y1="84" x2="1190" y2="266" gradientUnits="userSpaceOnUse">
      <stop stop-color="white" stop-opacity="0.10"/>
      <stop offset="1" stop-color="white" stop-opacity="0.04"/>
    </linearGradient>
  </defs>

  <rect width="1200" height="320" rx="24" fill="url(#bg)"/>
  <circle cx="988" cy="68" r="118" fill="#1D4ED8" fill-opacity="0.12"/>
  <circle cx="1076" cy="250" r="152" fill="#14B8A6" fill-opacity="0.10"/>
  <circle cx="128" cy="278" r="108" fill="#0EA5E9" fill-opacity="0.08"/>
  <path d="M0 250C88 220 156 224 248 262C338 300 436 298 516 256C596 214 676 196 772 210C870 224 954 272 1200 288V320H0V250Z" fill="white" fill-opacity="0.03"/>

  <rect x="32" y="70" width="8" height="178" rx="4" fill="url(#accent)"/>

  <rect x="64" y="72" width="270" height="30" rx="15" fill="white" fill-opacity="0.08"/>
  <text x="80" y="92" fill="#BFDBFE" font-family="Segoe UI, Arial, sans-serif" font-size="14" font-weight="600">
    SOFTWARE ENGINEERING &#8226; SMU
  </text>

  <text x="70" y="142" fill="white" font-family="Segoe UI, Arial, sans-serif" font-size="40" font-weight="700">
    Naren Swaminathan
  </text>
  <text x="70" y="178" fill="#BFDBFE" font-family="Segoe UI, Arial, sans-serif" font-size="21" font-weight="600">
    Building full-stack systems, backend services, and data projects
  </text>
  <text x="70" y="216" fill="#D1FAE5" font-family="Segoe UI, Arial, sans-serif" font-size="18">
    Interested in software engineering, analytics, and practical tools that solve real problems.
  </text>
  <text x="70" y="248" fill="#CBD5E1" font-family="Segoe UI, Arial, sans-serif" font-size="17">
    Python &#8226; JavaScript / TypeScript &#8226; React &#8226; FastAPI &#8226; Node.js &#8226; Tableau
  </text>

  <rect x="780" y="66" width="396" height="198" rx="20" fill="url(#panel)" stroke="white" stroke-opacity="0.10"/>
  <circle cx="804" cy="92" r="5" fill="#FB7185"/>
  <circle cx="822" cy="92" r="5" fill="#FBBF24"/>
  <circle cx="840" cy="92" r="5" fill="#34D399"/>
  <text x="802" y="124" fill="#E2E8F0" font-family="Consolas, monospace" font-size="16">tech_stack = {</text>
  <text x="822" y="156" fill="#7DD3FC" font-family="Consolas, monospace" font-size="16">"backend": ["Python", "Node.js"],</text>
  <text x="822" y="188" fill="#86EFAC" font-family="Consolas, monospace" font-size="16">"frontend": ["React", "Next.js", "Vue"],</text>
  <text x="822" y="220" fill="#FDE68A" font-family="Consolas, monospace" font-size="16">"data": ["pandas", "SQL", "Tableau"]</text>
  <text x="802" y="246" fill="#E2E8F0" font-family="Consolas, monospace" font-size="16">}</text>
</svg>
